<?xml version="1.0" encoding="utf-8"?><svg xmlns="http://www.w3.org/2000/svg" viewBox="0 0 57.54 66.41"><defs><style>.cls-1{fill:#afc9ff;}.cls-2{fill:#6195ff;}</style></defs><title>clock-icon</title><g id="Layer_2" data-name="Layer 2"><g id="Layer_1-2" data-name="Layer 1"><circle class="cls-1" cx="31.26" cy="40.13" r="26.27"/><path class="cls-2" d="M27.3,63.64a27.3,27.3,0,1,1,27.3-27.3A27.33,27.33,0,0,1,27.3,63.64Zm0-52.6a25.3,25.3,0,1,0,25.3,25.3A25.33,25.33,0,0,0,27.3,11Z"/><path class="cls-2" d="M27.3,58.25A21.91,21.91,0,1,1,49.21,36.34,21.93,21.93,0,0,1,27.3,58.25Zm0-41.82A19.91,19.91,0,1,0,47.21,36.34,19.93,19.93,0,0,0,27.3,16.43Z"/><rect class="cls-2" x="26.3" y="15.43" width="2" height="6.09"/><rect class="cls-2" x="26.3" y="51.16" width="2" height="6.09"/><rect class="cls-2" x="42.12" y="35.34" width="6.09" height="2"/><polygon class="cls-2" points="35.61 47.79 26.3 36.7 26.3 27.98 28.3 27.98 28.3 35.98 37.14 46.5 35.61 47.79"/><polygon class="cls-2" points="23.76 10.44 21.76 10.44 21.76 4.5 32.84 4.5 32.84 10.44 30.84 10.44 30.84 6.5 23.76 6.5 23.76 10.44"/><path class="cls-2" d="M37.38,6.5H17.23V0H37.38Zm-18.15-2H35.38V2H19.23Z"/></g></g></svg>