<?xml version="1.0" encoding="utf-8"?><svg xmlns="http://www.w3.org/2000/svg" viewBox="0 0 54.01 70.04"><defs><style>.cls-1{fill:#afc9ff;}.cls-2{fill:#6195ff;}</style></defs><title>document-icon</title><g id="Layer_2" data-name="Layer 2"><g id="Layer_1-2" data-name="Layer 1"><polygon class="cls-1" points="35.91 7 7 7 7 70.04 54.01 70.04 54.01 25.09 35.91 7"/><path class="cls-2" d="M29.41,8.33,40.68,19.6H29.41V8.33m-2-4.83V21.6H45.51L27.41,3.5Z"/><path class="cls-2" d="M49,65H0V0H30.33L49,18.68ZM2,63H47V19.51L29.5,2H2Z"/><rect class="cls-2" x="17.15" y="18.79" width="7.35" height="2"/><rect class="cls-2" x="17.15" y="27.69" width="25.11" height="2"/><rect class="cls-2" x="17.15" y="35.09" width="25.11" height="2"/><rect class="cls-2" x="17.15" y="42.48" width="25.11" height="2"/><rect class="cls-2" x="17.15" y="49.88" width="25.11" height="2"/><path class="cls-2" d="M13.62,22.85H5.67V14.91h7.95Zm-5.95-2h3.95V16.91H7.67Z"/><path class="cls-2" d="M13.62,32.67H5.67V24.72h7.95Zm-5.95-2h3.95V26.72H7.67Z"/><path class="cls-2" d="M13.62,42.48H5.67V34.53h7.95Zm-5.95-2h3.95V36.53H7.67Z"/></g></g></svg>